<svg t="1586411968525" class="icon" viewBox="0 0 1024 1024" version="1.1" xmlns="http://www.w3.org/2000/svg" p-id="37361" width="128" height="128"><path d="M921.206154 254.613662h-163.682462c-21.204677 0-42.425108-9.089969-57.580307-24.24517-15.1552-15.1552-24.245169-37.888-24.24517-59.10843V0.015754l245.507939 254.597908z" fill="#FFB6B6" p-id="37362"></path><path d="M709.033354 688.049231c-37.888-3.024738-74.247877-16.667569-103.045908-42.440862-57.596062 12.130462-110.639262 30.3104-165.194831 53.0432-42.425108 75.776-83.337846 115.192123-118.201107 115.192123-7.5776 0-15.1552-1.528123-21.220431-6.06523-15.1552-6.065231-24.260923-21.220431-24.260923-37.888 0-12.130462 3.040492-46.977969 134.884431-104.574031 30.3104-54.555569 54.571323-112.151631 74.26363-172.772431-16.667569-33.335138-53.0432-115.160615-27.269907-157.601477 7.561846-15.1552 24.245169-24.260923 42.425107-22.7328 13.642831 0 27.285662 6.065231 36.375631 18.179939 18.179938 25.757538 16.667569 77.288369-7.5776 156.104861a411.285662 411.285662 0 0 0 86.378339 110.623508 421.935262 421.935262 0 0 1 87.906461-9.089969c65.157908 1.512369 74.263631 31.822769 74.263631 50.002707 0 50.018462-46.993723 50.018462-69.726523 50.018462z m-389.482339 86.378338l4.552862-1.512369c19.692308-7.561846 34.847508-21.220431 45.4656-39.400369-19.692308 9.089969-36.375631 22.7328-50.018462 40.912738z m184.902893-416.752246h-4.568616c-1.496615 0-4.537108 0-6.049477 1.512369-6.065231 24.260923-1.512369 48.490338 9.08997 71.223139a109.174154 109.174154 0 0 0 1.528123-72.735508z m10.602338 201.554708l-1.512369 3.040492-1.512369-1.528123a1035.200985 1035.200985 0 0 1-40.928493 93.971692l3.040493-1.528123v3.040493a957.881108 957.881108 0 0 1 93.955938-27.285662l-1.512369-1.512369h4.537108c-21.220431-21.220431-40.912738-43.953231-56.083693-68.1984z m187.927631 74.263631c-12.130462 0-24.260923 0-36.391385 3.024738 13.658585 7.5776 27.285662 9.089969 40.928493 10.618092 9.089969 1.512369 19.692308 0 27.285661-3.040492 1.512369-4.537108-4.552862-10.602338-31.822769-10.602338z" fill="#FFFFFF" p-id="37363"></path><path d="M319.551015 774.427569l4.552862-1.512369c19.692308-7.561846 34.847508-21.220431 45.4656-39.400369-19.692308 9.089969-36.375631 22.7328-50.018462 40.912738z m195.505231-215.197538l-1.512369 3.040492-1.512369-1.528123a1035.200985 1035.200985 0 0 1-40.928493 93.971692l3.040493-1.528123v3.040493a957.881108 957.881108 0 0 1 93.955938-27.285662l-1.512369-1.512369h4.537108c-21.220431-21.220431-40.912738-43.953231-56.083693-68.1984z m-10.602338-201.554708h-4.568616c-1.496615 0-4.537108 0-6.049477 1.512369-6.065231 24.260923-1.512369 48.490338 9.08997 71.223139a109.174154 109.174154 0 0 0 1.528123-72.735508z m198.529969 275.818339c-12.130462 0-24.260923 0-36.391385 3.024738 13.658585 7.5776 27.285662 9.089969 40.928493 10.618092 9.089969 1.512369 19.692308 0 27.285661-3.040492 1.512369-4.537108-4.552862-10.602338-31.822769-10.602338z" fill="#FF7272" p-id="37364"></path><path d="M757.539446 254.613662c-21.220431 0-42.440862-9.089969-57.596061-24.24517-15.1552-15.1552-24.245169-37.888-24.24517-59.10843V0.015754H186.194708C163.461908 0 142.241477 7.561846 127.086277 24.260923 111.931077 40.928492 102.825354 62.148923 102.825354 84.881723v848.675446c0 46.977969 36.391385 83.3536 81.856984 83.3536H839.364923c21.220431 0 42.440862-9.089969 57.596062-24.245169a83.652923 83.652923 0 0 0 24.260923-59.108431V254.613662h-163.682462z m21.220431 386.441846c0 46.993723-45.4656 46.993723-69.726523 46.993723-37.888-3.024738-74.247877-16.667569-103.045908-42.440862-57.596062 12.130462-110.639262 30.3104-165.194831 53.0432-42.425108 75.776-83.337846 115.192123-118.201107 115.192123-7.5776 0-15.1552-1.528123-21.220431-6.06523-15.1552-6.065231-24.260923-21.220431-24.260923-37.888 0-12.130462 3.040492-46.977969 134.884431-104.574031 30.3104-54.555569 54.571323-112.151631 74.26363-172.772431-16.667569-33.335138-53.0432-115.160615-27.269907-157.601477 7.561846-15.1552 24.245169-24.260923 42.425107-22.7328 13.642831 0 27.285662 6.065231 36.375631 18.179939 18.179938 25.757538 16.667569 77.288369-7.5776 156.104861a411.285662 411.285662 0 0 0 86.378339 110.623508 421.935262 421.935262 0 0 1 87.906461-9.089969c65.157908 4.552862 75.776 34.847508 74.263631 53.0432z" fill="#FF7272" p-id="37365"></path></svg>