<svg t="1586412501135" class="icon" viewBox="0 0 1024 1024" version="1.1" xmlns="http://www.w3.org/2000/svg" p-id="40165" width="128" height="128"><path d="M597.104 545.625h214.963v67.701H597.104v-67.701z m0-135.446h214.963v68.28H597.104v-68.28z m0 270.85h214.963v67.742H597.104v-67.742z m290.142-496.76c25.61 28.172 46.264 107.276 46.264 146.806v616.466c0 39.574-29.492 72.041-65.431 72.041H264.604c-35.896 0-65.409-32.467-65.409-72.041v-48.205h52.646v48.205c0 8.139 5.886 14.623 13.259 14.623h603.517c7.229-0.123 13.093-6.566 13.261-14.623V331.075c0-4.296-0.498-32.468-1.489-37.919h-208.52V63.446a60.31 60.31 0 0 0-13.299-1.609H265.099c-7.229 0.082-13.094 6.566-13.259 14.622V222.19h-52.646V76.458c0-39.531 29.513-72.04 65.409-72.04h393.471c36.435 0 86.58 22.802 112.19 50.932l117.022 128.918h-0.04zM724 235.159h133.754c-2.974-3.798-5.412-7.557-7.85-10.285L733.334 95.955c-2.476-2.726-5.905-5.453-9.334-8.096v147.3zM45.242 289.933h491.885v541.784H45.263V289.933h-0.021z m332.006 388.989l83.626-206.948h-53.617a11426.438 11426.438 0 0 0-47.214 132.182c-2.479 7.021-4.461 15.16-6.402 24.371-2.479-9.211-4.419-17.35-6.402-24.371-1.983-10.863-13.281-54.732-34.43-132.182h-53.617c-15.243 61.215-27.532 105.084-35.896 132.182-2.479 7.021-4.42 15.16-6.382 24.371-2.479-9.211-4.461-17.35-6.423-24.371-7.374-19.496-21.129-63.943-42.257-132.182h-53.617l77.678 206.948h50.167c18.217-61.754 30.526-104.053 37.879-126.771 2.478-5.412 3.965-12.971 4.957-22.801 0.971-3.76 1.467-6.445 1.467-8.098h1.465c0 5.453 0.991 14.623 2.954 27.098 0.991 1.652 1.467 2.727 1.467 3.801 6.402 22.225 17.72 64.48 34.43 126.771h50.167z" fill="#1358f4" p-id="40166"></path></svg>