<svg t="1586423152936" class="icon" viewBox="0 0 1024 1024" version="1.1" xmlns="http://www.w3.org/2000/svg" p-id="20997" width="128" height="128"><path d="M510.795294 23.371294C241.242353 23.371294 22.708706 241.664 22.708706 511.457882c0 269.552941 218.292706 488.116706 488.086588 488.116706 269.552941 0 488.116706-218.292706 488.116706-488.116706C998.912 241.664 780.619294 23.371294 510.795294 23.371294m286.780235 335.631059L450.409412 707.764706c-5.722353 8.734118-15.239529 14.305882-25.569883 15.239529a34.635294 34.635294 0 0 1-28.069647-10.059294l-172.574117-172.333176a34.876235 34.876235 0 0 1 0-49.272471 34.785882 34.785882 0 0 1 49.242353 0l147.425882 147.275294 327.559529-328.583529a35.177412 35.177412 0 0 1 49.392942 0c13.402353 13.221647 13.402353 35.328-0.240942 48.971294" fill="#17b3a8" p-id="20998"></path></svg>